<svg xmlns="http://www.w3.org/2000/svg" viewBox="0 0 1261.38 950.25"><title>UX ILUSTRACION</title><g id="Capa_2" data-name="Capa 2"><g id="PATAS_DE_MESA" data-name="PATAS DE MESA"><path d="M224.72,795.83a8.86,8.86,0,0,1-3.91-1.88,10,10,0,0,1-2.17-2.46L216.93,616c1.49-1.7,5.12-5.33,10.39-5.85,10.49-1,20.49,10.91,18.65,16-.55,1.52-2.36,3.07-7.34,3.85Q235.33,711,232,792C230.13,794.62,227.32,796.21,224.72,795.83Z" style="fill:#526fbf"/><path d="M468.66,932.87c-.67.17-5.13,1.21-8.7-1.56a8.81,8.81,0,0,1-2.17-2.46q-.85-87.72-1.72-175.45c1.49-1.7,5.12-5.33,10.39-5.85,10.48-1,20.49,10.92,18.65,16.05-.49,1.38-2,2.74-5.76,3.56q-2.55,81.14-5.09,162.26A11.19,11.19,0,0,1,468.66,932.87Z" style="fill:#526fbf"/><path d="M1019.31,721.26a8.55,8.55,0,0,1-3.94-2,10.6,10.6,0,0,1-2.21-2.7q-2.42-97.29-4.81-194.58c1.46-1.91,5-6,10.29-6.65,10.47-1.32,20.68,11.77,18.93,17.5-.52,1.7-2.31,3.45-7.27,4.39q-1.87,89.84-3.74,179.67C1024.69,719.84,1021.91,721.64,1019.31,721.26Z" style="fill:#526fbf"/></g><g id="MESA"><path d="M1057.27,496.76v9a40,40,0,0,1-6.87,8.24,40.49,40.49,0,0,1-13.3,8.1l-79.92,36.59L659.35,665.43q-66.55,32.72-137.09,64.18-16.81,7.49-33.54,14.74A38.13,38.13,0,0,1,473.25,749c-1.65.12-7.09.42-15.47-2a66,66,0,0,1-19-9C418.2,723.59,260.08,619.65,234.84,607.58c-10.64-5.08-15-8.54-23.71-15.47a41.69,41.69,0,0,1-5.79-5.49c-3.56-4.13-4-6.38-4.77-6.65a20.84,20.84,0,0,1,1.59-7.66,21.49,21.49,0,0,1,6.65-8.39c8-4,22.2-10.9,40-19.23,55.25-25.89,97.46-42.83,107.35-46.84C393.85,482.53,490,440.47,745.42,323.7a33.64,33.64,0,0,1,39.68,2.82l94.73,66.84,146.43,81.07c.92.35,14.65,5.71,21.69,11.49a47.52,47.52,0,0,1,4.77,4.55A41,41,0,0,1,1057.27,496.76Z" style="fill:#e7ecf6"/><path d="M1057.27,505.8v21.54A23.23,23.23,0,0,1,1048,538.4l-47.28,23.21L683.54,677.53,644,695.2,487,766.33a47.3,47.3,0,0,1-8.67,2.6,53.21,53.21,0,0,1-12.44.87c-4.79-.11-7.67-.18-11.27-1.16a32.34,32.34,0,0,1-12.73-6.94L204.77,608.16l-2.61-4.91c-.23-1.62-.55-4-.86-6.94-.68-6.22-1-9.33-.87-13.31,0-1.1.08-2.1.14-3,.73.27,1.21,2.52,4.77,6.65a41.69,41.69,0,0,0,5.79,5.49c8.71,6.93,13.07,10.39,23.71,15.47,25.24,12.07,183.36,116,203.93,130.34a66,66,0,0,0,19,9c8.38,2.44,13.82,2.14,15.47,2a38.13,38.13,0,0,0,15.47-4.63q16.71-7.26,33.54-14.74,70.53-31.41,137.09-64.18l297.83-106.7,79.92-36.59a40.49,40.49,0,0,0,13.3-8.1A40,40,0,0,0,1057.27,505.8Z" style="fill:#cad6f1"/></g><g id="Capa_18" data-name="Capa 18"><path d="M609.87,469.08a19.52,19.52,0,0,1-1,3.47l-94.19,42.86a20.27,20.27,0,0,1-7.81,2.17,20.82,20.82,0,0,1-11.49-2.6c-5.74-3.65-10.47-6.53-13.67-8.46-9.81-5.92-14.56-8.45-24.5-14.53-4.51-2.75-8.13-5.05-10.41-6.5a12.47,12.47,0,0,1-4.77-10q.32-5.75.65-11.49l112.41-46.85a53.29,53.29,0,0,0-.15,5.79,48.87,48.87,0,0,0,.44,5.2c1.18,1,3,2.52,5.2,4.19a86.82,86.82,0,0,0,13.09,8.08L472,485.7l-6.65,2.9,33.54,20.09a14.8,14.8,0,0,0,8.67,2.39,14.33,14.33,0,0,0,4.34-.94l91-40.34a12,12,0,0,0,5.13-3.69,10.31,10.31,0,0,0,2-3.83A20,20,0,0,1,609.87,469.08Z" style="fill:#c4d0f0"/><path d="M610,462.28a10.31,10.31,0,0,1-2,3.83,12,12,0,0,1-5.13,3.69l-91,40.34a14.33,14.33,0,0,1-4.34.94,14.8,14.8,0,0,1-8.67-2.39L465.3,488.6l6.65-2.9,101.71-45.27c4,2,7.48,3.44,10.48,4.79A129,129,0,0,1,608,459.39Z" style="fill:#f2f4fc"/><path d="M451.55,464.73a17.59,17.59,0,0,0-3.17,6.95,8.75,8.75,0,0,0,0,4.92,7.71,7.71,0,0,0,2.46,3.47l14.46,8.53-6.64-4.3c-7.06-4.56-8.29-5.26-9.16-6.89C448.89,476.26,447.25,472.39,451.55,464.73Z" style="fill:#a3aec6"/></g><g id="Capa_19" data-name="Capa 19"><path d="M354,174.28l-10.61-10.19a21.89,21.89,0,0,0-5.48-6.61,22,22,0,0,1,4.4-7.49,22.81,22.81,0,0,1,8.24-5.64c7.18-3,23.57-9.61,45.54-17.78L633.3,33.32,692.59,10.7a14.52,14.52,0,0,1,8.08-.51c3,.72,4.91,2.36,8.38,5.49,4.34,3.9,8,7.26,10.7,9.83a8.45,8.45,0,0,0-3.83-2,9.67,9.67,0,0,0-4.23.22,28.41,28.41,0,0,0-7.05,2.49l-342.28,135a17.49,17.49,0,0,0-6.66,7.08A17.31,17.31,0,0,0,354,174.28Z" style="fill:#ccc"/><path d="M720.33,340.69a23.63,23.63,0,0,1-9.25,10.7c-8.37,5.4-60.94,28.88-133.74,59.28-31.77,12.82-57.5,23.94-75.32,31.8-57.17,25.22-68.58,30.32-93,40.63-8.59,3.63-21.95,9.22-38.6,15.94a12.74,12.74,0,0,1-8.14,1.16,24.14,24.14,0,0,1-4-1.52l-2.61-1.14a7.22,7.22,0,0,1-2.63-6.49l.12-30.81a5.5,5.5,0,0,0,2.37,3.56c1.26.72,2.66.56,5.53-.22a62.41,62.41,0,0,0,9.1-3.25L545.46,384l124.27-52.05,44.53-18.43a10.37,10.37,0,0,0,6.94-9.25v28.05A18.92,18.92,0,0,1,720.33,340.69Z" style="fill:#e6e6e6"/><path d="M719.75,25.51a8.45,8.45,0,0,0-3.83-2,9.67,9.67,0,0,0-4.23.22,28.41,28.41,0,0,0-7.05,2.49l-342.28,135A17.26,17.26,0,0,0,354,178.33q-.44,140.67-.86,281.35c.17.93.7,3.11,2.49,4.12,1.26.72,2.66.56,5.53-.22a62.41,62.41,0,0,0,9.1-3.25L545.46,384l124.27-52.05,44.53-18.43a10.37,10.37,0,0,0,6.94-9.25v-273A33.55,33.55,0,0,1,719.75,25.51ZM714,303.82a13,13,0,0,1-8.53,5.21L621.5,344.09l-81.6,35.06L423.8,428.23l-53.93,23.5a6.68,6.68,0,0,1-10.7-6.36V177.91a9.52,9.52,0,0,1,1.63-6.12,9.41,9.41,0,0,1,4.88-3.58L477.15,124.4,656.72,52.19l47.53-18.62a7.9,7.9,0,0,1,8.85-.07,7.17,7.17,0,0,1,2.6,4.16q.15,130.41.29,260.81A12.08,12.08,0,0,1,714,303.82Z" style="fill:#4d4d4d"/><path d="M594.26,278.24a14.07,14.07,0,0,1-8.46-3.54c-6.08-5.68-4.26-15.95-2.17-21.26a25.09,25.09,0,0,1,6.87-9.6l74.6-30.08a13,13,0,0,1,7.88,2.81c6.31,5.3,5.4,17,.87,24.08a20.42,20.42,0,0,1-5,5.35Z" style="fill:#2071fe"/><path d="M582.5,185.44l.79,13.09a10.27,10.27,0,0,0,14,8.95l71.44-27.86a10.26,10.26,0,0,0,6.47-10.75L673,150a10.27,10.27,0,0,0-13.87-8.4l-64.2,24.59A19.4,19.4,0,0,0,582.5,185.44Z" style="fill:#dee9fc"/><path d="M533.56,137.29,406,195.05a14.71,14.71,0,0,0-8.65,13.4V370.26l.29-.36,47.71-82.12,18.51,21.39L510.4,228.5l43.38,47.13v46.56a14.65,14.65,0,0,0,.58-4.09V150.7A14.72,14.72,0,0,0,533.56,137.29ZM444.62,260.16c-5.56,0-9.58-3.94-10-4.34-4.09-4.11-4.27-9.34-4.33-11.16a19.55,19.55,0,0,1,8.42-16.57,16.34,16.34,0,0,1,9.65-3.06,14.19,14.19,0,0,1,7.66,2.31c5.19,3.51,6.07,9.74,6.22,11.13C463.35,248.58,454.18,260.18,444.62,260.16Z" style="fill:#dee8fd"/><path d="M554.36,275.67v42.78c-.2,1.25-.39,2.49-.58,3.74a14.66,14.66,0,0,1-8.22,9.38L418,387.7a14.72,14.72,0,0,1-20.65-13.47v-4l.29-.36,47.71-82.12,18.51,21.39L510.4,228.5Q532.38,252.09,554.36,275.67Z" style="fill:#bcd3fc"/><path d="M355.74,497.54c-1.26-.56-2.67-1.21-3.94-1.86-7.17-3.67-11-5.65-13.55-9.43-1.05-1.58-3.5-5.94-2.35-13.56q.64-156.51,1.3-313c.17-.66.38-1.4.66-2.2a21.89,21.89,0,0,1,5.48,6.61L354,174.28h0a17.37,17.37,0,0,0,0,3.78q-.09,30.85-.16,61.7v.11q-.33,109.9-.67,219.8c0,.16.07.35.12.56l-.12,30.81a7.22,7.22,0,0,0,2.63,6.49Z" style="fill:#999"/></g><g id="TABLET"><polygon points="540.27 578 672.14 518.36 739.16 557.54 609.44 620.19 540.27 578" style="fill:#526fbf"/></g><g id="PIEL"><path d="M778.45,802.33c-.2-6.11-1.06-8.4.43-9.69a4.15,4.15,0,0,1,3.18-.65c6.54.7,12.37,4.56,16.05,6.58,10.2,5.59,16.68,4.08,17.06,7.08.36,2.84-5.17,6.2-9.54,7.45-3.39,1-3.87,0-16.48-1.3-6.24-.66-8.9-.72-10.27-2.82C778.11,807.79,778.61,807.26,778.45,802.33Z" style="fill:#f7b996"/><polygon points="638.5 840.33 638.5 835.69 681.21 834.43 680.43 845.51 680.69 854.49 671.25 871.08 648.99 868.48 630.76 855.44 638.5 840.33" style="fill:#f7b996"/><path d="M772.13,350.24c-.53,1.17-.22,4.73.39,11.85a41.21,41.21,0,0,0,1.31,8.46c.67,2.36,1.23,3.27,2,5.88a38.09,38.09,0,0,1,1.29,7.13q-1.74,6.94-3.47,13.88a4.2,4.2,0,0,0,.22,2.6c.87,2,3.49,3.2,6.5,2.82.5,1.49,1.26,3.75,2.17,6.51,3.26,9.94,3.2,10.44,4.34,12.8a34.4,34.4,0,0,0,7.8,10.62c2.12,1.89,4.18,3.75,7.59,4.77a17.06,17.06,0,0,0,10.2-.21A16.85,16.85,0,0,0,820,432a106.73,106.73,0,0,1,3.68,14.21A105.64,105.64,0,0,1,825.3,459c.8,2,8.71,21,27.68,25,15.54,3.33,36.27-3.79,39.47-18.21,2.31-10.39-5.51-19.95-7.37-22.12l-4.77-5.86-7.86-24.48c-2.46-9.17-11.69-39-39.42-56.41a79,79,0,0,0-35.78-11.71C793.26,344.81,775.32,343.15,772.13,350.24Z" style="fill:#fec09d"/><path d="M777.08,383.56a85.09,85.09,0,0,1,3.25,19.3" style="fill:#f29469"/><path d="M651,656.9c-4,1.16-7.34.63-11.07,0-4.23-.73-10.91-1.85-16.92-6.65-2.5-2-3.24-3.33-6.87-5.79a26.33,26.33,0,0,0-7.59-3.79,29.54,29.54,0,0,0-6.79-.83c-6.67-.38-8.81.4-10.41-1.3a4.22,4.22,0,0,1-1.15-3.8c.5-1.62,2.48-2.12,2.3-3.14-.1-.61-.85-.61-1.59-1.45a5.05,5.05,0,0,1-1-3.61c.24-2.35,2.76-4.57,6.22-4.92a4.55,4.55,0,0,1-.72-3,4.84,4.84,0,0,1,1.59-2.74c.55-.58,2.09-2,6.07-3.33a30.3,30.3,0,0,1,6.07-1.3,4.44,4.44,0,0,1,0-2.75,4.84,4.84,0,0,1,4.05-3,44.4,44.4,0,0,1,13.16-.15,35.32,35.32,0,0,1,6.94,1.59c3.14,1.1,5.75,2.82,10.84,6.22,11,7.34,11,7.37,12,7.95,6.88,4,7.84,3.38,9,5.35,1.28,2.25.29,3.53-3.47,18.36-.93,3.67-1.45,5.89-3.47,8.1A14.65,14.65,0,0,1,651,656.9Z" style="fill:#febf9d"/><path d="M613.34,631.22a32.78,32.78,0,0,0-20.82.37" style="fill:#e77b53"/><path d="M619.92,621.47a38.05,38.05,0,0,0-23.78.14" style="fill:#e77b53"/><path d="M626.43,613.3a35,35,0,0,0-11.5-2.39,34.6,34.6,0,0,0-5.78.29" style="fill:#e77b53"/></g><g id="ZAPATO"><path d="M682.52,878.26a.42.42,0,0,0-.19-.16c-1.08-.46-2.66,4-7.33,6.73-2.08,1.2-3.82,1.47-7,2-4.1.68-7.18.46-13,0a44.48,44.48,0,0,1-8-1c-4.28-1.17-5.49-2.68-10-5s-4.52-1.39-14-5c-5.09-1.94-4.15-1.85-12-5-5.51-2.21-7.52-2.86-9.72-3.87-1.24-.57-.87-.45-2.28-1.13-6.25-3-7.36-2.64-9.62-4.47a15.56,15.56,0,0,1-3.65-4.38,31.21,31.21,0,0,1-1.79-4c-.2-.54-.36-1-.47-1.33a15.13,15.13,0,0,1,2-7.31c3.42-5.78,10-7.3,13-8a28.79,28.79,0,0,1,12,0c2.94.54,2.57.9,7,2a70.08,70.08,0,0,0,13,2,67.93,67.93,0,0,0,8,0,13.78,13.78,0,0,0,0,9c1.17,3.16,3.32,4.86,6,7a27.46,27.46,0,0,0,12,6,22.66,22.66,0,0,0,24.15-9.17c.28,1.68.5,4.26.85,7.17a157.6,157.6,0,0,1,1,17C682.51,877.65,682.51,878,682.52,878.26Z" style="fill:#032058"/><path d="M682.55,882.73v0c0,3.85-.38,5.13-1,6.56-.07.14-.14.29-.21.42h0a.8.8,0,0,1-.08.16,16.83,16.83,0,0,1-4.71,5.41c-.45.36-.92.69-1.38,1l-.11.06c-6.85,4.39-14.71,3.22-16.51,3a25,25,0,0,1-5.54-1.61l-.09,0-3.37-1.36-.51-.21a99.39,99.39,0,0,1-11.26-5.64c-1.42-.62-4.39-1.84-11.7-4.62a81.67,81.67,0,0,1-8.53-2.53,102.5,102.5,0,0,1-16.34-7.23l-.1-.05c-8.66-4.41-11.33-7.25-12.91-9.41l0,0a18.3,18.3,0,0,1-1.62-2.27,21,21,0,0,1-2.91-8.76s0,0,0-.06a17.18,17.18,0,0,1-.11-3.87c0-.38.94,1.94,2.53,4.19a20,20,0,0,0,4,4,56.93,56.93,0,0,0,9,6c3.56,1.87,4.74,2.09,12,5,7.85,3.15,6.91,3.06,12,5,9.48,3.61,9.36,2.61,14,5s5.72,3.83,10,5a44.48,44.48,0,0,0,8,1c5.82.46,8.9.68,13,0,3.13-.52,5.17-.9,7-2a19.73,19.73,0,0,0,3.36-2.64,23.49,23.49,0,0,0,1.62-1.86c1-1.26,1.86-2.4,2.51-3.35l0,1.28C682.56,880.06,682.57,881.52,682.55,882.73Z" style="fill:#b3b3b3"/><path d="M652.87,897.69a20.5,20.5,0,0,1-3.88-1.57l.51.21Z" style="fill:#fbfbfd"/><path d="M681.21,889.92a14.74,14.74,0,0,1-6.09,6.4c.46-.3.93-.63,1.38-1A16.83,16.83,0,0,0,681.21,889.92Z" style="fill:#fbfbfd"/></g><g id="POLAR"><path d="M653,662.53a28.26,28.26,0,0,1-2.32-7.52c-2.09-13.4,6.62-23.56,7.52-24.58a31.18,31.18,0,0,1,9.54-7.23l30.44,1.41q16.44.75,32.89,1.48c1.74-4.68,3.92-10.66,6.36-17.64,2.12-6.07,6-17.26,10.41-31.51,3.16-10.15,6.61-21.78,10.12-34.7l-7.59-4a47.56,47.56,0,0,1,1.81-22.77A47,47,0,0,1,760,501.11l15.88,2.38,3.85-4.92c1.51-1.77,3.74-4.31,6.58-7.22,6.31-6.47,11.39-10.26,19.08-16.49,5.55-4.48,12.26-9.86,20-15.9,2.31.08,5.56.15,9.46.07a92.23,92.23,0,0,0,14.76-1,62.41,62.41,0,0,0,15.17-4.81c7.11-3.15,12.25-5.51,14.53-10.85a14,14,0,0,0,1.09-4.55c2.19,0,5.08.14,8.45.43,1.19.1,5.78.51,10.2,1.3a62.15,62.15,0,0,1,19.52,6.29,54.35,54.35,0,0,1,14.2,11,58.69,58.69,0,0,1,8.57,12.43c4.33,7.83,6.31,14.34,8.24,20.81a154.94,154.94,0,0,1,5,23.21q.69,9.78,1.3,19.73.87,14.25,1.51,28.19-34.47,22.35-69,44.68l-59.2,118c-3.68-.6-22-4-33.76-20.82a50.16,50.16,0,0,1-8.82-27,72.85,72.85,0,0,1-31.16,21.62c-7.15,2.52-23.11,7.87-41.64,1.52a59.57,59.57,0,0,1-29-22.13Z" style="fill:#2071fe"/></g><g id="SOMBRAS_DE_POLAR" data-name="SOMBRAS DE POLAR"><path d="M729.58,626.07c-.18-.12-2.37,2.29-4.06,5.54-1.41,2.69-2.18,5.4-2,5.47s.65-1.11,2.06-3.74C728.34,628.17,729.74,626.18,729.58,626.07Z" style="fill:#1a5ace"/><path d="M730.51,626.07c-.25,0-1,2.24-.76,4.67a10.14,10.14,0,0,0,1.89,4.88,38.22,38.22,0,0,1-.86-5.53C730.57,627.56,730.7,626.09,730.51,626.07Z" style="fill:#1a5ace"/><path d="M792.84,662.6c-.21.08.67,2.95,1.44,5.06a50.47,50.47,0,0,0,6.58,12.22c-.87-2-2.16-4.93-3.76-8.46C793.21,662.8,792.91,662.57,792.84,662.6Z" style="fill:#1a5ace"/><path d="M793.05,640.7l25.31-71.43a180,180,0,0,1-25.07,83.28Z" style="fill:#1a5ace"/><path d="M938.79,489.76c-.45.05.88,12.76,2.6,35.85,1.32,17.67,2.17,32.15,2.69,41.82l2.11-1c-.14-10.06-.65-24.9-2.49-42.84C941.92,506.15,939.3,489.7,938.79,489.76Z" style="fill:#1a5ace"/><path d="M758,541.74c-.5-.21,1.69-6.7,2.42-8.93a101.53,101.53,0,0,1,7.16-16.6c1.58-2.91,3-5.12,3.75-6.33,2.07-3.2,3.88-6.09,4.19-5.93s.1,1.11-7.91,18.41C761.71,535.18,758.56,542,758,541.74Z" style="fill:#1a5ace"/></g><g id="PANTALON"><path d="M611.44,849.05a1.47,1.47,0,0,1-.72-2.12,18.4,18.4,0,0,1,1.47-2.16,20.41,20.41,0,0,1,8.2-6.18,1.46,1.46,0,0,1,1.07,0l1.68.61a14.92,14.92,0,0,0-9.7,9.05,1.47,1.47,0,0,1-1.9.87Z" style="fill:#b3b3b3"/><path d="M617.88,850.85a1.46,1.46,0,0,1-.91-2,17.69,17.69,0,0,1,1.27-2.29,20.46,20.46,0,0,1,7.61-6.89,1.44,1.44,0,0,1,1.06-.13l1.73.45A15.15,15.15,0,0,0,622,845.2a14.82,14.82,0,0,0-2.2,4.64,1.47,1.47,0,0,1-1.82,1Z" style="fill:#b3b3b3"/><path d="M625,852.53a1.47,1.47,0,0,1-1.1-1.95,18.79,18.79,0,0,1,1.06-2.4,20.59,20.59,0,0,1,6.93-7.57,1.5,1.5,0,0,1,1-.22c.59.09,1.25,0,1.84.06a16.29,16.29,0,0,0-6.2,6.07,14.89,14.89,0,0,0-1.76,4.82,1.48,1.48,0,0,1-1.71,1.21Z" style="fill:#b3b3b3"/><path d="M707.9,753.32q-10.27,43.45-20.53,86.89a28.41,28.41,0,0,1-5.06,4.2A29.87,29.87,0,0,1,667.13,849a35.57,35.57,0,0,1-12.44-1.88c-4.56-1.32-12.27-3.66-18.5-10.55a31.56,31.56,0,0,1-3.91-5.35q2.24-45.86,7.09-94.84,2.11-20.94,4.62-41.21L684.76,677l17.93,6.37,23.71,6.07A53.63,53.63,0,0,0,756,688a52.66,52.66,0,0,0,18.36-11,131.64,131.64,0,0,0,18.65-36.28q.23,11,.44,22l-4,7.37q-.62,6.13-1.24,12.25a51.64,51.64,0,0,0,4.42,10.89,57.67,57.67,0,0,0,9.51,12.43,87,87,0,0,0,20.6,15.62l6.4,2.6Q823.7,745.4,818.28,767a6.85,6.85,0,0,1-1.95,2,7.25,7.25,0,0,1-4.77,1.08l-22.12-6.29-42.22-17.35L713,730.64a12.71,12.71,0,0,0-9.16,15.45A14.34,14.34,0,0,0,707.9,753.32Z" style="fill:#031f57"/></g><g id="ZAPATO_IZQUIERDO" data-name="ZAPATO IZQUIERDO"><path d="M689.1,719.92l20.47,12.22c.34-.21.72-.42,1.13-.62a13.38,13.38,0,0,1,1.79-.72Z" style="fill:#001342"/><path d="M703.61,741.41,692.5,736l11.77,2.6c-.14.4-.28.84-.4,1.32A13.11,13.11,0,0,0,703.61,741.41Z" style="fill:#001342"/><path d="M816.48,812l-1.29,15.19c-1.24,1.39-2.16,4.22-5.8,5.92-1.81.84-3.95,1-8.24,1.19a40.68,40.68,0,0,1-8.89-.33,22.91,22.91,0,0,1-6.07-1.52c-1.43-.6-1.87-1-5.75-3.36-2.81-1.71-4.21-2.57-5.1-3a81.6,81.6,0,0,0-8-3.36l-5.1-2c-3.8-1.44-3.74-1.4-4.23-1.62a35.05,35.05,0,0,1-6.18-3.8,12.94,12.94,0,0,1-3-2.6,11,11,0,0,1-1.74-3.8,25.5,25.5,0,0,1-1-7l.09-.37,21.82,1.09,5.85-5.86a2.71,2.71,0,0,0,1,2.12c1.1.66,3.32-.15,4.82-2.55,0-.78-.07-1.55-.11-2.33l0-.05.1.05a11.08,11.08,0,0,0,.58,4.48,13,13,0,0,0,4.91,6.07,21.32,21.32,0,0,0,9.81,4.27,20.72,20.72,0,0,0,9.28-.8Z" style="fill:#2c487f"/><path d="M815.19,827.21q-.74,8.6-1.46,17.19a18.78,18.78,0,0,1-5.93,4.2,22.77,22.77,0,0,1-5.57,1.55,27.15,27.15,0,0,1-6,.54,28.32,28.32,0,0,1-6.29-1,24.6,24.6,0,0,1-6.18-2.14,43.27,43.27,0,0,1-3.79-2.53c-2.34-1.64-3-2.22-5.32-3.83-1-.7-2-1.37-3-2a57.43,57.43,0,0,0-6.94-3.47,76.69,76.69,0,0,1-9.11-5.06c-3.32-2.11-5-3.17-6.22-4.48-1.45-1.55-4-4.94-4.62-11.28a49.06,49.06,0,0,1,.75-10.3,56.86,56.86,0,0,1,1.57-7.1L746,802a25.5,25.5,0,0,0,1,7,11,11,0,0,0,1.74,3.8,12.94,12.94,0,0,0,3,2.6,35.05,35.05,0,0,0,6.18,3.8c.49.22.43.18,4.23,1.62l5.1,2a81.6,81.6,0,0,1,8,3.36c.89.46,2.29,1.32,5.1,3,3.88,2.37,4.32,2.76,5.75,3.36a22.91,22.91,0,0,0,6.07,1.52,40.68,40.68,0,0,0,8.89.33c4.29-.24,6.43-.35,8.24-1.19C813,831.43,814,828.6,815.19,827.21Z" style="fill:#b3b3b3"/><path d="M779.57,796.42c-1.5,2.4-3.72,3.21-4.82,2.55a2.71,2.71,0,0,1-1-2.12l-5.85,5.86-21.82-1.09,1-4.11a16.49,16.49,0,0,1,3.75-6.75,19.06,19.06,0,0,1,11.56-5.49L779.51,794l0,.05C779.5,794.87,779.54,795.64,779.57,796.42Z" style="fill:#031f57"/></g><g id="SILLA"><path d="M743.35,756.3,695.23,856.83a5.71,5.71,0,0,0,1.73,4.49,7.23,7.23,0,0,0,2.65,1.63,5.45,5.45,0,0,0,3.26.31,3.93,3.93,0,0,0,2.28-1.44l57-104.46-14.8-3.64Z" style="fill:#526fbf"/><path d="M816.48,812,804.19,945a6.71,6.71,0,0,0,3.11,4.41,6.28,6.28,0,0,0,3,.8,4.79,4.79,0,0,0,3.18-.94,4.71,4.71,0,0,0,1.68-2.53q9.67-70.49,19.36-141l-15.18,1.74Z" style="fill:#526fbf"/><path d="M891.15,782.82l18.22,60.72,13.44,44.24a4.52,4.52,0,0,0,2.61,2.6,4.46,4.46,0,0,0,3.43-.18A4.78,4.78,0,0,0,931.6,888a5.61,5.61,0,0,0,.47-2,8,8,0,0,0-.15-2.35L905.25,776.31Z" style="fill:#526fbf"/><path d="M1002.19,578.09c-9.79,38.71-15.1,61-18.22,74.6-1.45,6.33-3.57,15.79-7.16,28.63-3.4,12.18-3.84,12-7.51,25.44-1.95,7.1-3.54,13.36-6.66,22.85-2.69,8.2-4.08,11.35-5.78,14.45a56,56,0,0,1-10.12,13.6c-4.52,4.38-8.72,6.77-17.06,11-11.72,5.92-20.84,10-26.31,12.44-17.86,8-26.78,12-30.36,13.59-8,3.62-16.21,6.9-24.29,10.41a88.1,88.1,0,0,1-15,5.2c-5.53,1.36-10.67,2.57-17.2,1.74a36.22,36.22,0,0,1-12.29-3.91q-12.51-7.17-25.17-14.32-35.89-20.28-71.35-39.49a20,20,0,0,1-3.5-7.08,16.47,16.47,0,0,1,1.32-12.35l.66.29c.85.38,1.55.71,2,1l51.76,27a215.52,215.52,0,0,1,24.57,13c7.31,4.51,12.92,8.59,22.56,11.57,10.68,3.29,15,1.73,16.77.87,4.83-2.31,7.49-7,9.25-10.13a33.52,33.52,0,0,0,3.83-10.62c1.73-6.94,4.33-17.51,7.45-30.44,4.59-19,6.89-28.57,8.82-37.22,0,0,8.55-38.35,18.87-69.84,1-3.05,3.36-10,9.76-15.39a28.7,28.7,0,0,1,6.94-4.34q16.14-8.16,33-16.27Q937.06,587,952.09,580L990,562.26c2-.91,6.17-1.65,8.89.43,2.93,2.25,1.77,6.23,3.44,7.14l0,.45A39,39,0,0,1,1002.19,578.09Z" style="fill:#c7d4f1"/><path d="M1002.37,569.83c-1.67-.91-.51-4.89-3.44-7.14-2.72-2.08-6.94-1.34-8.89-.43L952.09,580q-15,6.93-30.36,14.31-16.82,8.11-33,16.27a28.7,28.7,0,0,0-6.94,4.34c-6.4,5.4-8.76,12.34-9.76,15.39-10.32,31.49-18.87,69.84-18.87,69.84-1.93,8.65-4.23,18.18-8.82,37.22-3.12,12.93-5.72,23.5-7.45,30.44a33.52,33.52,0,0,1-3.83,10.62c-1.76,3.12-4.42,7.82-9.25,10.13-1.81.86-6.09,2.42-16.77-.87-9.64-3-15.25-7.06-22.56-11.57a215.52,215.52,0,0,0-24.57-13l-51.76-27c-.49-.24-1.19-.57-2-1l-.66-.29a6.7,6.7,0,0,1,.53-.78c2.12-2.73,5.57-3.31,7-3.46l52.11,24c18.59,5.79,29.69,9.67,34.62,12,1.27.6,4.25,1.37,10.22,2.9a8.12,8.12,0,0,0,5.32-.09,6.6,6.6,0,0,0,2.54-1.91,7,7,0,0,0,1.46-4.69l2.84-11.31c5-19.75,8.76-34.34,9.58-37.51,3.21-12.43,9.09-35.74,20.75-83.06.56-1.81,1.4-4.31,2.6-7.22a60.6,60.6,0,0,1,5.49-11,40,40,0,0,1,11.57-11.28l105.76-50.1a16.34,16.34,0,0,1,5.42-1.08,17.8,17.8,0,0,1,10.41,3.25,19.64,19.64,0,0,1,6.94,8A22.38,22.38,0,0,1,1002.37,569.83Z" style="fill:#e6e6e6"/></g><g id="PELO"><path d="M768.62,347.56a25.5,25.5,0,0,1-4.34-4.77,22.29,22.29,0,0,1-3-19.08c.88-3.45,2.37-9.26,7.81-13.16a19.61,19.61,0,0,1,13-3.32,15.91,15.91,0,0,0,3.25-1.31,16.74,16.74,0,0,0,4.77-3.9c3.1-3.45,7.16-5.51,10-6.94a33.24,33.24,0,0,1,13-3.47A34.38,34.38,0,0,1,827,293.78a38.39,38.39,0,0,1,8.24,4.12,35.69,35.69,0,0,1,17.13,0c3.18.8,8.13,2.05,12.58,6.29A25.26,25.26,0,0,1,872.28,320a16.54,16.54,0,0,1,3.91.43c7.72,1.83,11.85,8.93,13.23,11.28,5.06,8.68,4.21,17.67,3.68,23.21a66,66,0,0,1-3.25,14.31,135.92,135.92,0,0,1-5,12.79c-3.79,9-4.65,10-6.5,15A97.94,97.94,0,0,0,874,412.19a37.21,37.21,0,0,1-4.77,3c-3.09,1.64-10.49,5.58-20,4.33-11.13-1.47-17.73-9.13-19.52-11.27a33.26,33.26,0,0,1-6.08-11.06,24.61,24.61,0,0,0,2-6.08,25.06,25.06,0,0,0-1.3-13.44c-1.25-3.23-2.24-5.78-5-7.38a9.43,9.43,0,0,0-8-.65,9.66,9.66,0,0,0-5.42,6.73c-.22,2.31-.43,4.62-.65,6.94a4.59,4.59,0,0,1-6.29-.87c-.58-2.89-1.15-5.78-1.73-8.68a20.86,20.86,0,0,1-9.11-21.9,18.85,18.85,0,0,1-11.5.43A21.16,21.16,0,0,1,768.62,347.56Z" style="fill:#041f57"/></g><g id="Capa_11" data-name="Capa 11"><path d="M686.7,515.54a3.48,3.48,0,0,1-2.17-.34c-1.35-.74-1.72-2.32-1.95-3.41a13.05,13.05,0,0,1,.45-6.56,41.74,41.74,0,0,1,3.61-8.68c2.55-4.53,4.19-7.46,6.66-10.12,5.69-6.15,13.34-8.3,18.11-9.1Z" style="fill:#fbc29e"/></g><g id="LAPIZ"><path d="M673.92,541.37l4.55-6.09c0-2.35,0-4.71,0-7.07q18-27.75,35.89-55.51l9-14.43a4.72,4.72,0,0,1,2.39-2.38,4.92,4.92,0,0,1,4.44.54,5.42,5.42,0,0,1,2.39,3.8,5.34,5.34,0,0,1-.54,3q-21.42,33.45-42.83,66.91a11.91,11.91,0,0,1-4.77,4.69c-1.81.92-2.9.8-4.78,1.59A13.74,13.74,0,0,0,673.92,541.37Z" style="fill:#012364"/></g><g id="Capa_12" data-name="Capa 12"><path d="M760,501.11a47.89,47.89,0,0,0-6.1,10,45.07,45.07,0,0,0-3.65,12.62c-6.84.76-12.45,1-16.5,1-4.42.06-5.49-.11-6.5-.36-3-.77-5-2.19-12.51-7.81-1.15-.87-2.88-2.16-5-3.76l-9.18-.25Q711.24,495.79,722,479h3.56a39.16,39.16,0,0,1,6.94,3.48,69.47,69.47,0,0,1,8.09,6.5c7.37,6.4,7.5,6.52,8.1,6.94A35.25,35.25,0,0,0,760,501.11Z" style="fill:#fdc09d"/><path d="M695.39,511.73a5.71,5.71,0,0,1-3-1.81,4.48,4.48,0,0,1-.85-1.92,4.11,4.11,0,0,1,.2-1.62,4.64,4.64,0,0,1,.86-1.52,20,20,0,0,1,4.12-3.9c2.56-1.62,7.1-2.71,12.49-2L704,510.57c-1.15.67-2.31,1.33-3.47,2A15.41,15.41,0,0,1,695.39,511.73Z" style="fill:#fdc09d"/></g><g id="Capa_13" data-name="Capa 13"><path d="M721.16,496.88a3.39,3.39,0,0,1-2.17,1.66,7.32,7.32,0,0,1-3.68.07c-4.78-.64-5.34-.57-5.36-.79,0-.42,2.12-1.23,11.32-2.9A3,3,0,0,1,721.16,496.88Z" style="fill:#eb7d50"/><path d="M715.25,489.56l2.15,2.8,3.87,2.56c-1,.2-4.3.82-6.12,1.2l-2.24.52a13.07,13.07,0,0,0-1.56.43,12.69,12.69,0,0,0-1.27.55Q712.66,493.59,715.25,489.56Z" style="fill:#f2885f"/><path d="M686.7,515.54A61.63,61.63,0,0,1,692,504.82c1.49-2.39,2.33-3.36,6-8.27,5.68-7.63,8.22-11.43,8.33-11.35s-1.79,3.14-10.66,16.57a8.23,8.23,0,0,0-3.25,3.4,8,8,0,0,0-.83,2.83Z" style="fill:#f2885f"/><path d="M750.05,524.71a41.91,41.91,0,0,0-.33,6.95,29.43,29.43,0,0,0-4.52-.85c-5-.53-6.85.59-11.13.58a26.83,26.83,0,0,1-10.56-2.31,25.73,25.73,0,0,1-8.38-6.08c-1,.29-2,.57-3.11.8-.7.15-1.38.26-2,.36a9.09,9.09,0,0,1,.08,3.47c-.21,1.17-.59,3.34-2,4s-3.71-.36-5.27-2.61c-.56,1.81-1.73,3-2.87,3s-1.71-1-2.41-1.93a8.9,8.9,0,0,1-1.59-3.62,2.23,2.23,0,0,1-1.88.66,2.2,2.2,0,0,1-1.75-1.69l8.24-12.88h0l9.18.25c2.11,1.6,3.84,2.89,5,3.76,7.49,5.62,9.49,7,12.51,7.81,1,.25,2.08.42,6.5.36,4-.06,9.66-.29,16.5-1C750.14,524.05,750.09,524.38,750.05,524.71Z" style="fill:#f2885f"/><path d="M750.2,523.69l-.48,8a41.91,41.91,0,0,1,.33-6.95C750.09,524.38,750.14,524.05,750.2,523.69Z" style="fill:#f2885f"/></g><g id="Capa_17" data-name="Capa 17"><path d="M203.32,435.8,23.52,512.63A16.25,16.25,0,0,1,.88,497.71l-.38-304a29.45,29.45,0,0,1,17.86-27.11l189.5-81a12.72,12.72,0,0,1,17.72,11.69v304.8A36.68,36.68,0,0,1,203.32,435.8Z" style="fill:none;stroke:#052268;stroke-miterlimit:10"/><path d="M165.26,289.75a58.27,58.27,0,0,0-3.87-6.46c-4.09-6.22-7.33-8.15-8.24-8.67a19.37,19.37,0,0,0-4.63-1.88l-16.19-.14a13.86,13.86,0,0,1-6.79,16.91c-4.47,2.21-8.72,1.1-11.28.43a19.48,19.48,0,0,1-8.24-4.48,18.82,18.82,0,0,1-3-3.61A54.17,54.17,0,0,0,80.57,298c-4.3,5.36-6.49,10.38-8.53,15a40.72,40.72,0,0,0-2.7,7.23c-5.35-6-8.74-12.55-10.88-16.72a76.48,76.48,0,0,1-8.1-28.9c-3.26-38,21.47-90.17,62.68-103.88,6.58-2.19,21-6.77,37.35-1.26,4.44,1.5,17,6.41,25.56,19.17,2.52,3.74,7.64,12.5,8.43,28.5C185.35,236.86,179.73,265.68,165.26,289.75Z" style="fill:#e3e9f7"/><path d="M85.73,292.53A12.17,12.17,0,0,1,80.57,290a11.85,11.85,0,0,1-3.32-6.65,16.81,16.81,0,0,1,1.15-9.83c1.78-4.25,3.61-4.26,6.08-8.39,2.1-3.51,2.57-6.52,3.47-12.29,1.08-6.94.13-7.53,1-15.47a73.56,73.56,0,0,1,2.74-14.17c1.3-4.24,2.47-8.12,5.35-12.58a38.44,38.44,0,0,1,12.58-12.14c3.15-1.84,7.18-4.29,13-4.63a24.76,24.76,0,0,1,10.12,1.59,15.06,15.06,0,0,1,3.91-.28,16.35,16.35,0,0,1,5.35,1.3c4.33,2,6.28,6.46,7.37,9,2,4.47,2.13,8.26,2.31,12.29a94.24,94.24,0,0,1-.57,13.45c-.44,4.22-.82,5.55-.29,8.09s1.26,3.2,3,7.66c1.46,3.67,2.19,5.5,2.46,7.23.94,5.93-1.77,10.91-2.6,12.44a22.66,22.66,0,0,1-7.95,8.38C114.61,286.83,91,293.75,85.73,292.53Z" style="fill:#02205a"/><path d="M100.23,285.32a8.27,8.27,0,0,1,2.75-3.47c.84-.62,1.23-.65,2-1.14a8.7,8.7,0,0,0,3.09-4.35c2-4.89,1.47-12.9,1.41-13.59,0-3.33-.07-6.65-.11-10a6.47,6.47,0,0,1-3.25.33c-2.87-.48-4.44-2.9-5.1-3.91a8,8,0,0,1,2.17-11.71,5.42,5.42,0,0,1,3.58-1.19c2.74.27,4.12,3.23,4.23,3.47.69-1.17,1.38-2.36,2.06-3.58q.56-1,1.08-1.95a23.47,23.47,0,0,0,3.47-.76c9.5-2.84,14.51-10.89,15.84-13a33.76,33.76,0,0,0,4.44-11.39,35.29,35.29,0,0,1,3.9,3.91c2.2,2.56,4,4.67,4.67,7.8a12.68,12.68,0,0,1,.21,4.12l-.21,17.46a52.25,52.25,0,0,1-2.93,8.79c-1.82,4.16-3.51,8-7.37,11.27a21.07,21.07,0,0,1-5.86,3.47c.07,2.13.15,4.27.22,6.4a3.41,3.41,0,0,0,1,.29,3.13,3.13,0,0,0,.87,0c1-.11,9.47,4.84,8.68,11-.51,3.93-4.53,6.08-8.82,8.38-3.14,1.68-15.85,8.49-25.45,2.75C103,292.47,99.31,288.07,100.23,285.32Z" style="fill:#fdc3a5"/><path d="M165.26,289.75c-9.68,16.1-23.32,30.08-41.6,37.76-7.68,3.23-23.93,10.06-39.91,3.35a40.35,40.35,0,0,1-14.41-10.55,40.72,40.72,0,0,1,2.7-7.23c2-4.66,4.23-9.68,8.53-15A54.17,54.17,0,0,1,103,281.85a18.82,18.82,0,0,0,3,3.61,19.48,19.48,0,0,0,8.24,4.48c2.56.67,6.81,1.78,11.28-.43a13.86,13.86,0,0,0,6.79-16.91l16.19.14a19.37,19.37,0,0,1,4.63,1.88c.91.52,4.15,2.45,8.24,8.67A58.27,58.27,0,0,1,165.26,289.75Z" style="fill:#2071fe"/><path d="M116.5,262a15.59,15.59,0,0,0,4.63,3,15.92,15.92,0,0,0,9.14.9l.15,4.45-.87-.07c-2.06-.22-5.9-.61-9-3A12.86,12.86,0,0,1,116.5,262Z" style="fill:#fc956b"/><path d="M39.08,397.66c-.28,2.88-.74,7.68,2.38,11.49,3.29,4,8.89,4.91,12.8,4.34C64.42,412,70.65,399.44,71,389.85c.08-2.73.27-8.72-3.91-12.36-3.84-3.35-9.09-2.71-10-2.6C47.13,376.1,40,387.83,39.08,397.66Z" style="fill:#2071fe"/><path d="M85.84,384.49l.33.87a4,4,0,0,0,5.27,2.21l92.94-40.18a4.6,4.6,0,0,0,2.21-6.42h0a3.64,3.64,0,0,0-4.61-1.61L88.13,379.08A4.22,4.22,0,0,0,85.84,384.49Z" style="fill:#d7e1f6"/><path d="M41.67,448.24l.34.87a4,4,0,0,0,5.26,2.21L186,390.83a5.58,5.58,0,0,0,1.51-4.34,3.83,3.83,0,0,0-1.3-2.6,3.91,3.91,0,0,0-3-.76L44,442.83A4.22,4.22,0,0,0,41.67,448.24Z" style="fill:#d7e1f6"/><path d="M860.36,1.23a18.43,18.43,0,0,0-23.52,18.11l.09,4.08V203.51a24.52,24.52,0,0,0,16.16,23.05l385.05,139.86a14.91,14.91,0,0,0,20-13.83L1260.88,137a25.91,25.91,0,0,0-18.7-25.2Z" style="fill:none;stroke:#052268;stroke-miterlimit:10"/><path d="M953,116.52a5.27,5.27,0,0,0-3.91.74,4.39,4.39,0,0,0-1.71,3.59l0,1v43.09a5.87,5.87,0,0,0,3.86,5.52l46.06,15.27a11.56,11.56,0,0,0,4.34-2.32,11.42,11.42,0,0,0,2.89-3.75q-.14-19.53-.29-39a10.23,10.23,0,0,0-.86-5.78,8.64,8.64,0,0,0-3.29-3.26C975.16,122.91,956.71,117,953,116.52Z" style="fill:none;stroke:#052268;stroke-miterlimit:10"/><path d="M1128.33,134.9a5.66,5.66,0,0,0-3.91.69,4,4,0,0,0-1.72,3.33l0,.9v39.93a5.47,5.47,0,0,0,3.86,5.11L1172.65,199a11.93,11.93,0,0,0,4.34-2.14,10.8,10.8,0,0,0,2.89-3.49q-.15-18.07-.29-36.17a8.82,8.82,0,0,0-.87-5.36,8.4,8.4,0,0,0-3.28-3C1150.47,140.82,1132,135.35,1128.33,134.9Z" style="fill:none;stroke:#052268;stroke-miterlimit:10"/><path d="M1128.33,230.64a5.66,5.66,0,0,0-3.91.69,4,4,0,0,0-1.72,3.32l0,.91v39.93a5.48,5.48,0,0,0,3.86,5.11l46.06,14.15a11.83,11.83,0,0,0,4.34-2.15,10.79,10.79,0,0,0,2.89-3.48q-.15-18.09-.29-36.17a8.82,8.82,0,0,0-.87-5.36,8.4,8.4,0,0,0-3.28-3C1150.47,236.56,1132,231.09,1128.33,230.64Z" style="fill:none;stroke:#052268;stroke-miterlimit:10"/><path d="M907.42,111.39c.54,1.33,5.48,14-2,23-.59.72-5.06,6-11.92,6.51-12.24.89-25.89-13.89-24.73-28.41.52-6.41,4.1-15.1,11.5-17.78C890.7,90.92,903.15,101,907.42,111.39Z" style="fill:#64d29f"/><polygon points="1033.49 169.8 1057.2 149.56 1077.73 183.91 1055.61 203.63 1033.49 169.8" style="fill:#2072fd"/><path d="M1237.84,234.09c.34.83,3.43,8.73-1.22,14.39a11.48,11.48,0,0,1-7.47,4.07c-7.66.56-16.2-8.69-15.47-17.78.32-4,2.56-9.45,7.19-11.13C1227.38,221.28,1235.17,227.57,1237.84,234.09Z" style="fill:#64d29f"/><polygon points="930.91 142.04 933.8 128.89 946.09 140.31 930.91 142.04" style="fill:#052268"/><path d="M933.28,134.38c-.17.06-22.88-9.59-22.88-9.59l-.38,1.95,23,9.38Z" style="fill:#052268"/><polygon points="1016.68 172.07 1019.57 158.91 1031.86 170.34 1016.68 172.07" style="fill:#052268"/><path d="M1019.05,164.41l-7.27-2.32-5.91-2.17-.27,1.41,13.18,4.81Z" style="fill:#052268"/><polygon points="1083.62 192.44 1085.9 180.51 1095.87 190.38 1083.62 192.44" style="fill:#052268"/><polygon points="1087.74 189.03 1078.85 185.89 1080.04 183.91 1088.39 187.08 1087.74 189.03" style="fill:#052268"/><polygon points="1107.92 249.81 1107.63 237.19 1120.2 243.63 1107.92 249.81" style="fill:#052268"/><polyline points="1119.99 161.1 1107.18 166.09 1108.09 153.5" style="fill:#052268"/><path d="M1110,158.89a12.57,12.57,0,0,0-11.71,6.5q-.23,32.76-.43,65.5a18.51,18.51,0,0,0,11.49,12.58" style="fill:none;stroke:#052268;stroke-miterlimit:10"/><path d="M1179.81,184.48a21,21,0,0,1,6.71,1.3,16.38,16.38,0,0,1,6.94,4.34,15.12,15.12,0,0,1,3.69,9.11V263a9.91,9.91,0,0,1-11.73,5.32l-5.71-1.19" style="fill:none;stroke:#052268;stroke-miterlimit:10"/><polygon points="1201.49 234.5 1202.07 223.13 1211.9 232.48 1201.49 234.5" style="fill:#052268"/><polygon points="1202.28 230.56 1197.15 229.01 1197.15 226.84 1202.72 228.82 1202.28 230.56" style="fill:#052268"/></g></g></svg>