<svg width="79" height="79" viewBox="0 0 79 79" fill="none" xmlns="http://www.w3.org/2000/svg">
<circle cx="39.5" cy="39.5" r="39" stroke="#526FBF"/>
<path d="M39 24.5C41.6234 24.5 43.75 22.3734 43.75 19.75C43.75 17.1266 41.6234 15 39 15C36.3766 15 34.25 17.1266 34.25 19.75C34.25 22.3734 36.3766 24.5 39 24.5Z" fill="#1A5ACE"/>
<path d="M55.6249 41.125V36.375C51.9674 36.4225 48.2861 34.5937 45.9586 32.0287L42.8949 28.6325C42.4911 28.1812 41.9924 27.825 41.4461 27.5637C41.4224 27.5637 41.4224 27.54 41.3986 27.54H41.3749C40.5436 27.065 39.5936 26.8275 38.5486 26.9225C36.0549 27.1362 34.2499 29.345 34.2499 31.8387V45.875C34.2499 48.4875 36.3874 50.625 38.9999 50.625H50.8749V62.5H55.6249V49.4375C55.6249 46.825 53.4874 44.6875 50.8749 44.6875H43.7499V36.4937C46.8136 39.035 51.4686 41.1012 55.6249 41.125ZM40.9711 53C39.9974 55.755 37.3611 57.75 34.2499 57.75C30.3074 57.75 27.1249 54.5675 27.1249 50.625C27.1249 47.5137 29.1199 44.9012 31.8749 43.9037V38.9875C29.7732 39.4171 27.8272 40.4079 26.2435 41.8547C24.6597 43.3016 23.4975 45.1504 22.8802 47.2048C22.2629 49.2592 22.2137 51.4424 22.7376 53.5225C23.2616 55.6027 24.3392 57.502 25.856 59.0188C27.3729 60.5357 29.2722 61.6133 31.3524 62.1373C33.4325 62.6612 35.6157 62.6119 37.6701 61.9947C39.7245 61.3774 41.5733 60.2151 43.0201 58.6314C44.467 57.0477 45.4578 55.1017 45.8874 53H40.9711Z" fill="#1A5ACE"/>
</svg>
