<svg width="17" height="17" viewBox="0 0 17 17" fill="none" xmlns="http://www.w3.org/2000/svg">
<path d="M6.93225 11.4856L3.75 8.30261L4.8105 7.24211L6.93225 9.36311L11.1743 5.12036L12.2355 6.18161L6.93225 11.4856Z" fill="#1A5ACE"/>
<path fill-rule="evenodd" clip-rule="evenodd" d="M0 8.25C0 3.69375 3.69375 0 8.25 0C12.8062 0 16.5 3.69375 16.5 8.25C16.5 12.8062 12.8062 16.5 8.25 16.5C3.69375 16.5 0 12.8062 0 8.25ZM8.25 15C7.36358 15 6.48583 14.8254 5.66689 14.4862C4.84794 14.147 4.10382 13.6498 3.47703 13.023C2.85023 12.3962 2.35303 11.6521 2.01381 10.8331C1.67459 10.0142 1.5 9.13642 1.5 8.25C1.5 7.36358 1.67459 6.48583 2.01381 5.66689C2.35303 4.84794 2.85023 4.10382 3.47703 3.47703C4.10382 2.85023 4.84794 2.35303 5.66689 2.01381C6.48583 1.67459 7.36358 1.5 8.25 1.5C10.0402 1.5 11.7571 2.21116 13.023 3.47703C14.2888 4.7429 15 6.45979 15 8.25C15 10.0402 14.2888 11.7571 13.023 13.023C11.7571 14.2888 10.0402 15 8.25 15Z" fill="#1A5ACE"/>
</svg>
