<svg width="79" height="79" viewBox="0 0 79 79" fill="none" xmlns="http://www.w3.org/2000/svg">
<circle cx="39.5" cy="39.5" r="39" stroke="#526FBF"/>
<path d="M17 51.5281L27.4724 24H31.0944L41.5669 51.5281H37.7873L35.0708 43.9775H23.496L20.7795 51.5281H17ZM24.6378 40.7528H33.9291L31.3307 33.9888C30.9895 33.0974 30.6614 32.1404 30.3464 31.118C30.0315 30.0955 29.7034 29.0075 29.3622 27.8539H29.2047C28.8897 28.9813 28.5616 30.0562 28.2204 31.0787C27.9055 32.1011 27.5774 33.0712 27.2362 33.9888L24.6378 40.7528Z" fill="#1A5ACE"/>
<path d="M50.6299 52C49.2914 52 48.0971 51.6985 47.0473 51.0955C46.0237 50.4925 45.2231 49.6798 44.6457 48.6573C44.0683 47.6348 43.7796 46.4944 43.7796 45.236C43.7796 43.2959 44.4751 41.7491 45.8662 40.5955C47.2573 39.4419 49.1601 38.8652 51.5748 38.8652H56.6142V37.9213C56.6142 36.9251 56.4436 36.1386 56.1024 35.5618C55.7612 34.985 55.3281 34.5655 54.8032 34.3034C54.3045 34.015 53.7795 33.8315 53.2284 33.7528C52.7034 33.6479 52.231 33.5955 51.811 33.5955C50.6037 33.5955 49.5407 33.8708 48.6221 34.4213C47.7034 34.9719 47.0866 35.6404 46.7717 36.427H43.5434C43.7533 35.3258 44.2389 34.3427 45 33.4775C45.7612 32.5861 46.7323 31.8914 47.9134 31.3933C49.0945 30.8689 50.3937 30.6067 51.811 30.6067C53.3858 30.6067 54.8163 30.8951 56.1024 31.4719C57.3885 32.0487 58.3596 32.8745 59.0157 33.9494C59.6719 34.9981 60 36.4794 60 38.3933V51.5281H56.7717V49.0506H56.6929C56.378 49.4438 55.9318 49.8764 55.3543 50.3483C54.7769 50.794 54.0945 51.1873 53.3071 51.5281C52.5197 51.8427 51.6273 52 50.6299 52ZM51.1024 49.0112C52.126 49.0112 53.0446 48.8015 53.8583 48.382C54.6982 47.9363 55.3675 47.3464 55.8661 46.6124C56.3648 45.8521 56.6142 45 56.6142 44.0562V41.7753H51.811C49.9738 41.7753 48.7402 42.0768 48.1103 42.6798C47.4803 43.2828 47.1654 44.1086 47.1654 45.1573C47.1654 46.206 47.5328 47.1105 48.2677 47.8708C49.0027 48.6311 49.9475 49.0112 51.1024 49.0112Z" fill="#1A5ACE"/>
</svg>
