<svg width="79" height="79" viewBox="0 0 79 79" fill="none" xmlns="http://www.w3.org/2000/svg">
<circle cx="39.5" cy="39.5" r="39" stroke="#526FBF"/>
<path d="M25.5417 27.5368V42.0331C25.5417 49.9247 31.7915 56.3207 39.4998 56.3207C47.2082 56.3207 53.4579 49.9247 53.4579 42.0331V27.5445L39.416 22.8197L25.5417 27.5368ZM39.4121 20L56.0748 25.6043V42.0331C56.0748 51.4028 48.6531 59 39.4998 59C30.3465 59 22.9248 51.4028 22.9248 42.0331V25.6043L39.4121 20ZM48.0291 32.6458C47.9018 32.5288 47.7523 32.4387 47.5894 32.3809C47.4266 32.323 47.2537 32.2985 47.0812 32.3089C46.9087 32.3192 46.74 32.3643 46.5853 32.4412C46.4305 32.5182 46.2929 32.6256 46.1805 32.7569L37.7643 42.4464L32.3277 36.4307C32.2128 36.3019 32.0731 36.1976 31.917 36.1239C31.7609 36.0502 31.5916 36.0087 31.4191 36.0018C31.2466 35.9949 31.0745 36.0227 30.9131 36.0837C30.7516 36.1446 30.604 36.2374 30.4791 36.3566C30.2243 36.6015 30.0744 36.9356 30.061 37.2888C30.0475 37.6419 30.1715 37.9865 30.407 38.2501L36.8225 45.348C36.9446 45.4854 37.0949 45.595 37.263 45.6695C37.4311 45.7439 37.6132 45.7815 37.797 45.7796C37.9809 45.7778 38.1622 45.7366 38.3287 45.6588C38.4953 45.5809 38.6433 45.4684 38.7627 45.3286L48.1364 34.5373C48.3668 34.2694 48.4843 33.9226 48.4643 33.5699C48.4443 33.2171 48.2883 32.8859 48.0291 32.6458Z" fill="#1A5ACE"/>
</svg>
