<svg width="92" height="92" viewBox="0 0 92 92" fill="none" xmlns="http://www.w3.org/2000/svg">
<path d="M40.8632 40.8633C39.4957 42.2237 38.7237 44.071 38.7166 45.9999C38.7166 47.9316 39.4839 49.7842 40.8498 51.15C42.2157 52.5159 44.0682 53.2833 45.9999 53.2833C47.9288 53.2762 49.7762 52.5041 51.1366 51.1366" stroke="#1A5ACE" stroke-width="2.5" stroke-linecap="round" stroke-linejoin="round"/>
<path d="M45.9999 24.1499C41.6784 24.1499 37.4539 25.4314 33.8607 27.8323C30.2675 30.2332 27.4669 33.6457 25.8131 37.6383C24.1594 41.6308 23.7267 46.0241 24.5698 50.2626C25.4128 54.5011 27.4939 58.3944 30.5496 61.4502C33.6054 64.506 37.4987 66.587 41.7372 67.4301C45.9757 68.2731 50.369 67.8404 54.3615 66.1867C58.3541 64.5329 61.7666 61.7323 64.1675 58.1391C66.5684 54.5459 67.8499 50.3214 67.8499 45.9999" stroke="#1A5ACE" stroke-width="2.5" stroke-linecap="round" stroke-linejoin="round"/>
<path d="M45.9999 9.58325C38.7974 9.58325 31.7566 11.7191 25.7679 15.7206C19.7792 19.7221 15.1116 25.4096 12.3553 32.0639C9.59903 38.7181 8.87786 46.0403 10.283 53.1045C11.6881 60.1686 15.1565 66.6574 20.2495 71.7504C25.3424 76.8433 31.8313 80.3117 38.8954 81.7168C45.9595 83.122 53.2817 82.4008 59.936 79.6445C66.5903 76.8882 72.2778 72.2206 76.2793 66.2319C80.2808 60.2432 82.4166 53.2025 82.4166 45.9999M59.5124 32.4912L49.6416 42.3582" stroke="#1A5ACE" stroke-width="2.5" stroke-linecap="round" stroke-linejoin="round"/>
<path d="M80.2699 22.4018L67.8499 24.1498L69.5979 11.7298C69.6107 11.5856 69.5802 11.4408 69.5103 11.3139C69.4404 11.1871 69.3343 11.0839 69.2055 11.0177C69.0767 10.9514 68.9311 10.9251 68.7873 10.942C68.6435 10.9589 68.5079 11.0183 68.398 11.1127L60.164 19.3045C59.3183 20.1563 58.6962 21.204 58.3531 22.3543C58.0101 23.5046 57.9566 24.7219 58.1975 25.8978L59.5085 32.4912L66.1019 33.7983C67.2778 34.0393 68.4951 33.9858 69.6454 33.6427C70.7957 33.2996 71.8433 32.6776 72.6952 31.8318L80.8832 23.6017C80.9779 23.4915 81.0374 23.3556 81.0543 23.2114C81.0711 23.0671 81.0444 22.9211 80.9777 22.7921C80.9109 22.6632 80.8071 22.5571 80.6796 22.4875C80.5521 22.418 80.4068 22.3881 80.2622 22.4018" stroke="#1A5ACE" stroke-width="2.5" stroke-linecap="round" stroke-linejoin="round"/>
</svg>
