<svg width="17" height="15" viewBox="0 0 17 15" fill="none" xmlns="http://www.w3.org/2000/svg">
<path d="M1 6.36401L-8.74228e-08 6.36402L8.74228e-08 8.36402L1 8.36401L1 7.36401L1 6.36401ZM16.2071 8.07112C16.5976 7.6806 16.5976 7.04743 16.2071 6.65691L9.84315 0.292946C9.45262 -0.097578 8.81946 -0.0975779 8.42893 0.292946C8.03841 0.683471 8.03841 1.31664 8.42893 1.70716L14.0858 7.36401L8.42893 13.0209C8.03841 13.4114 8.03841 14.0446 8.42893 14.4351C8.81946 14.8256 9.45262 14.8256 9.84315 14.4351L16.2071 8.07112ZM1 7.36401L1 8.36401L15.5 8.36401L15.5 7.36401L15.5 6.36401L1 6.36401L1 7.36401Z" fill="#052268"/>
</svg>
