<svg width="41" height="41" viewBox="0 0 41 41" fill="none" xmlns="http://www.w3.org/2000/svg">
<path d="M7.04102 4.89355L7.04688 4.89746L7.05371 4.90137L11.5381 7.58496L11.5615 7.59863L11.6924 7.67188V11.3047L17.7773 17.3896L18.4844 16.6826C18.822 16.345 19.0982 16.0593 19.3564 15.791C19.6156 15.5217 19.8546 15.273 20.127 15L20.4932 14.6318L20.4033 14.1201C20.3047 13.5596 20.2188 13.233 20.2188 12.8125C20.2188 8.44096 23.8125 4.84589 28.1836 4.84375C29.2738 4.85066 30.3511 5.08159 31.3486 5.52148L31.3613 5.52637L31.374 5.53223L31.7422 5.68262L26.7207 10.7051L26.0293 11.3965L26.7051 12.1035L28.5068 13.9854L29.2139 14.7236L35.0273 8.91016L35.2256 9.21777H35.2266C35.7355 10.0323 36.0141 10.9518 36.0557 11.9326H36.0098L35.9961 12.9189C35.9379 17.0005 32.8022 20.3736 28.8154 20.7461L26.6885 20.9443L28.2041 22.4502L34.8896 29.0977L34.8994 29.1084L34.9102 29.1182L34.9512 29.1562C36.4432 30.5566 36.5484 32.9556 35.2256 34.5957H34.6357V35.209C33.1412 36.5107 30.7813 36.4464 29.2334 34.9873L29.1748 34.9316L29.1084 34.8867L29.0664 34.8584L21.209 26.9619L20.5 26.25L19.791 26.9619L11.9033 34.8887L11.8936 34.8994L11.8828 34.9102L11.8447 34.9512C10.3578 36.5349 7.74299 36.5374 6.10742 34.9238L6.08789 34.9043L5.94043 34.7598C4.47073 33.232 4.49879 30.7102 6.07422 29.1357L6.07617 29.1328C6.28249 28.9252 12.1057 23.0828 16.6855 18.4824L17.3926 17.7734L16.6816 17.0674L11.5566 11.9824L11.2637 11.6924H7.67188L7.59863 11.5615L7.58496 11.5381L4.90137 7.05371L4.89746 7.04688L4.89355 7.04102L4.77734 6.85352L4.93164 6.69141L6.69141 4.93164L6.85352 4.77734L7.04102 4.89355ZM28.1875 5.40625C24.1067 5.40625 20.7812 8.73165 20.7812 12.8125V12.8311C20.7928 13.4406 20.8682 14.0479 21.0068 14.6416L21.0117 14.6621L21.0176 14.6826L21.0605 14.8398L20.9541 14.9473V14.9482C16.3543 19.5468 6.94943 29.0316 6.45996 29.5225C5.13263 30.8498 5.01199 32.8884 6.16699 34.2354V34.2471L6.27051 34.3506C6.3203 34.4035 6.37179 34.4555 6.42578 34.5059L6.45996 34.54C6.5427 34.6228 6.62887 34.7001 6.7168 34.7734L6.73828 34.793H6.74023C8.06154 35.8774 9.91736 35.9096 11.1729 34.833H11.1865L11.3096 34.709C11.3479 34.6722 11.3858 34.6347 11.4229 34.5957L11.4795 34.5391L25.9307 20.0459L26.043 19.9326L26.1904 19.958C26.8057 20.0835 27.4783 20.2188 28.0674 20.2188C32.1481 20.2186 35.4736 16.8932 35.4736 12.8125V12.6924C35.4897 12.3311 35.3884 12.0491 35.3291 11.8965C35.247 11.6849 35.2665 11.7308 35.2695 11.7646L35.084 9.62695L33.5664 11.1445L29.2041 15.5059L29.0312 15.3252L29.0264 15.3203L25.4219 11.5967L25.2207 11.3867L29.375 7.2334L30.8916 5.71777L28.8096 5.53418C28.8012 5.53116 28.7907 5.52804 28.7783 5.52344C28.698 5.49356 28.473 5.40625 28.1875 5.40625ZM25.1572 21.5947L21.5938 25.1592L20.8887 25.8643L21.5928 26.5713L29.5215 34.5381L29.5225 34.54C30.8498 35.8674 32.8884 35.988 34.2354 34.833H34.249L34.3721 34.709C34.4104 34.6722 34.4483 34.6347 34.4854 34.5957L34.542 34.5391C35.8667 33.2123 35.9884 31.1748 34.834 29.8281V29.8145L34.6943 29.6748C34.6705 29.6503 34.6458 29.6265 34.6211 29.6025L34.5391 29.5205L26.5703 21.5928L25.8623 20.8887L25.1572 21.5947ZM11.1299 8.00977L10.6523 7.7168L7.64941 5.87402L6.97559 5.46094L6.41797 6.02051L6.01855 6.42188L5.46191 6.97949L5.87402 7.65039L7.7168 10.6523L8.00977 11.1299H10.2646L11.1299 10.2646V8.00977Z" stroke="#052268" stroke-width="2"/>
</svg>
