<svg width="40" height="69" viewBox="0 0 40 69" fill="none" xmlns="http://www.w3.org/2000/svg">
<path d="M39.5829 34.5512C39.5829 39.7803 39.5829 45.0088 39.5829 50.2367C39.5675 59.7679 32.6894 67.6285 23.1903 68.7626C18.2042 69.3585 13.3018 68.9544 8.92018 66.1396C3.31425 62.542 0.187704 57.4063 0.102326 50.7766C-0.046232 39.911 -0.0172012 29.0301 0.0886676 18.1577C0.170631 8.85407 7.50802 1.0631 16.8364 0.175175C21.0404 -0.223796 25.2035 -0.0591145 29.0626 1.92556C35.6572 5.32106 39.2874 10.7318 39.5436 18.1272C39.7331 23.5939 39.5812 29.0726 39.5812 34.5461L39.5829 34.5512ZM37.3272 50.0211C37.3425 49.6595 37.3545 49.522 37.3545 49.3862C37.3545 39.001 37.4296 28.6159 37.3203 18.2324C37.2657 12.8947 34.8649 8.6062 30.5652 5.40934C26.2963 2.23964 21.3888 1.74899 16.3737 2.496C7.95199 3.74894 2.29142 10.5128 2.288 18.9642C2.288 29.0794 2.288 39.1951 2.288 49.3115V50.0024L2.44339 50.0432L14.5824 31.446H11.1212V7.71828C11.2268 7.69958 11.3334 7.68711 11.4405 7.68093C14.83 7.68093 18.2213 7.67244 21.6125 7.69621C22.9444 7.70164 24.2549 8.02972 25.4306 8.65204C29.4263 10.7539 29.8019 15.8726 26.1478 18.499C25.9992 18.6059 25.8575 18.7248 25.697 18.8504C28.3761 20.2358 30.1861 22.1186 29.8993 25.3155C29.6227 28.3935 27.8109 30.2389 24.9251 31.1897L37.3272 50.0211ZM19.8195 27.2458C19.2646 28.1116 18.7728 28.8909 18.2691 29.6617C13.2033 37.4125 8.13299 45.161 3.05811 52.9073C2.90148 53.121 2.79722 53.3681 2.75364 53.629C2.71006 53.8898 2.72836 54.1572 2.8071 54.4098C4.0707 59.043 6.81817 62.5149 11.0529 64.7915C15.2877 67.0682 19.8708 67.2329 24.3941 66.2652C30.9426 64.8628 35.0527 60.6626 36.8866 54.2587C36.9685 53.9957 36.9857 53.7171 36.9367 53.4461C36.8876 53.1752 36.7738 52.9199 36.6049 52.7019C35.191 50.6204 33.8284 48.5033 32.4435 46.4015L19.8195 27.2458ZM19.8008 23.47C19.9715 23.7026 20.091 23.8486 20.1952 24.0048C21.1634 25.4733 22.1179 26.9504 23.11 28.4037C23.2398 28.5938 23.6086 28.8094 23.7811 28.7534C25.8882 28.0641 27.5872 26.4801 26.9401 23.762C26.4278 21.6211 24.5 20.2103 22.0513 20.1764C19.49 20.1407 16.9423 20.1628 14.3878 20.1645C14.2251 20.1759 14.0635 20.1997 13.9045 20.2358V28.9656C15.7726 29.3171 16.0595 29.2016 17.0072 27.7432C17.1011 27.5989 17.1865 27.4512 17.2804 27.3086C18.1069 26.0506 18.9316 24.7925 19.8008 23.47ZM13.9097 17.7469C16.6281 17.7469 19.3278 17.8437 22.0155 17.7095C22.7744 17.6887 23.5107 17.4482 24.1343 17.0176C24.7578 16.587 25.2416 15.9849 25.5262 15.2851C26.5508 12.9355 25.0686 10.4754 22.3348 10.2021C20.313 9.99836 18.2622 10.0951 16.2251 10.0646C15.4687 10.0544 14.7139 10.0646 13.9097 10.0646V17.7469Z" fill="#052268"/>
<path d="M30.3758 51.3368C30.3417 56.3723 26.9112 60.7746 22.1881 61.783C16.7666 62.9392 11.5397 59.6999 10.0285 54.245C8.3705 48.2588 12.0418 42.1095 18.0626 40.9211C23.8376 39.7802 29.0303 43.7122 30.1214 49.2401C30.258 49.9192 30.2939 50.6339 30.3758 51.3368ZM20.028 42.9889C19.5876 43.002 19.1481 43.0383 18.7115 43.0976C13.8945 43.9787 10.8567 48.9056 12.2228 53.6236C13.4539 57.9291 17.4172 60.4452 21.5956 59.5963C24.9782 58.902 27.5037 56.0514 28.0143 52.3503C28.6819 47.5084 24.8365 43.0178 20.028 42.9889Z" fill="#052268"/>
</svg>
