<svg width="79" height="79" viewBox="0 0 79 79" fill="none" xmlns="http://www.w3.org/2000/svg">
<rect x="0.5" y="0.5" width="78" height="78" rx="39" stroke="#526FBF"/>
<path d="M45.159 53.1316L28.966 45.0351M45.159 28.9934L28.966 37.0899M28.8996 35.9017C28.8079 34.5863 27.9497 33.563 26.6446 33.3705C25.4632 33.1964 23.6677 33.0417 21.0208 33.0417C18.374 33.0417 16.5784 33.1964 15.3971 33.3705C14.0908 33.563 13.2338 34.5851 13.1421 35.9017C13.0653 37.0108 13 38.662 13 41.0625C13 43.463 13.0653 45.1142 13.1421 46.2233C13.2338 47.5388 14.092 48.562 15.3971 48.7545C16.5784 48.9286 18.374 49.0833 21.0208 49.0833C23.6677 49.0833 25.4632 48.9286 26.6446 48.7545C27.9508 48.562 28.8079 47.5399 28.8996 46.2233C28.9764 45.1142 29.0417 43.463 29.0417 41.0625C29.0417 38.662 28.9764 37.0108 28.8996 35.9017ZM45.2254 19.86C45.3171 18.5434 46.1753 17.5214 47.4804 17.3289C48.6618 17.1547 50.4573 17 53.1042 17C55.751 17 57.5466 17.1547 58.7279 17.3289C60.0342 17.5214 60.8913 18.5434 60.9829 19.86C61.0597 20.9692 61.125 22.6203 61.125 25.0208C61.125 27.4214 61.0597 29.0725 60.9829 30.1817C60.8913 31.4982 60.033 32.5203 58.7279 32.7128C57.5466 32.887 55.751 33.0417 53.1042 33.0417C50.4573 33.0417 48.6618 32.887 47.4804 32.7128C46.1742 32.5203 45.3171 31.4982 45.2254 30.1817C45.1486 29.0725 45.0833 27.4214 45.0833 25.0208C45.0833 22.6203 45.1486 20.9692 45.2254 19.86ZM45.2254 62.265C45.3171 63.5816 46.1753 64.6036 47.4804 64.7961C48.6618 64.9703 50.4573 65.125 53.1042 65.125C55.751 65.125 57.5466 64.9703 58.7279 64.7961C60.0342 64.6036 60.8913 63.5816 60.9829 62.265C61.0597 61.1558 61.125 59.5047 61.125 57.1042C61.125 54.7036 61.0597 53.0525 60.9829 51.9433C60.8913 50.6268 60.033 49.6047 58.7279 49.4122C57.5466 49.238 55.751 49.0833 53.1042 49.0833C50.4573 49.0833 48.6618 49.238 47.4804 49.4122C46.1742 49.6047 45.3171 50.6268 45.2254 51.9433C45.1486 53.0525 45.0833 54.7036 45.0833 57.1042C45.0833 59.5047 45.1486 61.1558 45.2254 62.265Z" stroke="#1A5ACE" stroke-width="1.5" stroke-linecap="round" stroke-linejoin="round"/>
</svg>
