<svg width="55" height="56" viewBox="0 0 55 56" fill="none" xmlns="http://www.w3.org/2000/svg">
<path d="M48.8889 0C50.5097 0 52.064 0.655553 53.2101 1.82245C54.3562 2.98934 55 4.57199 55 6.22222V49.7778C55 51.428 54.3562 53.0107 53.2101 54.1776C52.064 55.3444 50.5097 56 48.8889 56H6.11111C4.49034 56 2.93596 55.3444 1.7899 54.1776C0.643847 53.0107 0 51.428 0 49.7778V6.22222C0 4.57199 0.643847 2.98934 1.7899 1.82245C2.93596 0.655553 4.49034 0 6.11111 0H48.8889ZM47.3611 48.2222V31.7333C47.3611 29.0434 46.3116 26.4637 44.4436 24.5617C42.5755 22.6597 40.0419 21.5911 37.4 21.5911C34.8028 21.5911 31.7778 23.2089 30.3111 25.6356V22.1822H21.7861V48.2222H30.3111V32.8844C30.3111 30.4889 32.2056 28.5289 34.5583 28.5289C35.6929 28.5289 36.7809 28.9878 37.5832 29.8046C38.3854 30.6214 38.8361 31.7293 38.8361 32.8844V48.2222H47.3611ZM11.8556 17.2978C13.217 17.2978 14.5227 16.7471 15.4854 15.7669C16.4481 14.7867 16.9889 13.4573 16.9889 12.0711C16.9889 9.17778 14.6972 6.81333 11.8556 6.81333C10.486 6.81333 9.17255 7.36728 8.20413 8.3533C7.23572 9.33933 6.69167 10.6767 6.69167 12.0711C6.69167 14.9644 9.01389 17.2978 11.8556 17.2978ZM16.1028 48.2222V22.1822H7.63889V48.2222H16.1028Z" fill="#1A5ACE"/>
</svg>
