<svg width="79" height="79" viewBox="0 0 79 79" fill="none" xmlns="http://www.w3.org/2000/svg">
<circle cx="39.5" cy="39.5" r="39" stroke="#526FBF"/>
<path d="M39.5 14.5C34.2301 14.4997 29.1731 16.5794 25.4281 20.287C21.6831 23.9946 19.5527 29.0304 19.5 34.3C19.5 48 37.125 63.25 37.875 63.9C38.3278 64.2873 38.9041 64.5002 39.5 64.5002C40.0959 64.5002 40.6722 64.2873 41.125 63.9C42 63.25 59.5 48 59.5 34.3C59.4473 29.0304 57.3169 23.9946 53.5719 20.287C49.8269 16.5794 44.7699 14.4997 39.5 14.5ZM39.5 58.625C35.325 54.65 24.5 43.625 24.5 34.3C24.5 30.3218 26.0804 26.5064 28.8934 23.6934C31.7064 20.8804 35.5218 19.3 39.5 19.3C43.4782 19.3 47.2936 20.8804 50.1066 23.6934C52.9196 26.5064 54.5 30.3218 54.5 34.3C54.5 43.55 43.675 54.65 39.5 58.625Z" fill="#1A5ACE"/>
<path d="M39.5 24.5C37.7694 24.5 36.0777 25.0132 34.6388 25.9746C33.1998 26.9361 32.0783 28.3027 31.4161 29.9015C30.7538 31.5004 30.5805 33.2597 30.9181 34.957C31.2558 36.6544 32.0891 38.2135 33.3128 39.4372C34.5365 40.6609 36.0956 41.4942 37.793 41.8319C39.4903 42.1695 41.2496 41.9962 42.8485 41.3339C44.4473 40.6717 45.8139 39.5502 46.7754 38.1112C47.7368 36.6723 48.25 34.9806 48.25 33.25C48.25 30.9294 47.3281 28.7038 45.6872 27.0628C44.0462 25.4219 41.8206 24.5 39.5 24.5ZM39.5 37C38.7583 37 38.0333 36.7801 37.4166 36.368C36.7999 35.956 36.3193 35.3703 36.0355 34.6851C35.7516 33.9998 35.6774 33.2458 35.8221 32.5184C35.9668 31.791 36.3239 31.1228 36.8484 30.5983C37.3728 30.0739 38.041 29.7167 38.7684 29.5721C39.4958 29.4274 40.2498 29.5016 40.9351 29.7855C41.6203 30.0693 42.206 30.5499 42.618 31.1666C43.0301 31.7833 43.25 32.5083 43.25 33.25C43.25 34.2446 42.8549 35.1984 42.1517 35.9016C41.4484 36.6049 40.4946 37 39.5 37Z" fill="#1A5ACE"/>
</svg>
