<svg width="50" height="86" viewBox="0 0 50 86" fill="none" xmlns="http://www.w3.org/2000/svg">
<path d="M49.3152 43.0464C49.3152 49.5612 49.3152 56.0752 49.3152 62.5886C49.2961 74.4632 40.7269 84.2565 28.8921 85.6694C22.6801 86.4119 16.5723 85.9085 11.1134 82.4015C4.12914 77.9194 0.233855 71.521 0.127485 63.2612C-0.0575992 49.7241 -0.0214305 36.1679 0.110469 22.6222C0.212584 11.0311 9.35404 1.32449 20.9761 0.218246C26.2137 -0.278822 31.4003 -0.0736492 36.2083 2.399C44.4243 6.62936 48.9472 13.3704 49.2663 22.5842C49.5024 29.3951 49.3131 36.2207 49.3131 43.0401L49.3152 43.0464ZM46.5049 62.32C46.5241 61.8694 46.539 61.6981 46.539 61.5289C46.539 48.5903 46.6326 35.6518 46.4964 22.7153C46.4283 16.0652 43.4372 10.7222 38.0804 6.73935C32.7619 2.79031 26.6477 2.17902 20.3995 3.1097C9.90717 4.6707 2.85482 13.0976 2.85056 23.627C2.85056 36.2292 2.85056 48.8322 2.85056 61.4358V62.2967L3.04416 62.3475L18.1679 39.1778H13.8556V9.616C13.9872 9.5927 14.12 9.57716 14.2535 9.56946C18.4764 9.56946 22.7014 9.55889 26.9264 9.5885C28.5858 9.59527 30.2185 10.004 31.6833 10.7793C36.6614 13.3979 37.1294 19.7752 32.5768 23.0474C32.3917 23.1807 32.2151 23.3287 32.0152 23.4852C35.3531 25.2112 37.6081 27.557 37.2507 31.5398C36.9061 35.3747 34.6489 37.6739 31.0536 38.8584L46.5049 62.32ZM24.6926 33.9448C24.0012 35.0236 23.3885 35.9944 22.761 36.9547C16.4497 46.6112 10.1327 56.2649 3.81002 65.9158C3.61487 66.182 3.48498 66.4899 3.43068 66.8149C3.37639 67.1399 3.3992 67.473 3.49729 67.7877C5.07157 73.56 8.49457 77.8856 13.7705 80.722C19.0465 83.5585 24.7565 83.7637 30.392 82.558C38.5506 80.8109 43.6712 75.5779 45.9561 67.5995C46.0581 67.2718 46.0795 66.9246 46.0184 66.5871C45.9573 66.2495 45.8156 65.9315 45.605 65.6598C43.8435 63.0666 42.1459 60.429 40.4206 57.8104L24.6926 33.9448ZM24.6692 29.2406C24.882 29.5304 25.0309 29.7123 25.1607 29.9069C26.3669 31.7366 27.5561 33.5768 28.7921 35.3874C28.9538 35.6243 29.4134 35.8929 29.6282 35.8231C32.2534 34.9643 34.3702 32.9909 33.5639 29.6045C32.9257 26.9372 30.5239 25.1795 27.4732 25.1372C24.282 25.0928 21.108 25.1203 17.9254 25.1224C17.7227 25.1366 17.5214 25.1663 17.3233 25.2112V36.0875C19.6507 36.5253 20.0081 36.3815 21.1888 34.5646C21.3058 34.3848 21.4122 34.2007 21.5292 34.0231C22.5588 32.4557 23.5864 30.8884 24.6692 29.2406ZM17.3297 22.1104C20.7165 22.1104 24.0799 22.2309 27.4285 22.0638C28.374 22.0378 29.2914 21.7382 30.0682 21.2018C30.8451 20.6653 31.4478 19.9152 31.8024 19.0434C33.0789 16.1159 31.2323 13.0511 27.8263 12.7105C25.3075 12.4567 22.7524 12.5772 20.2144 12.5392C19.272 12.5265 18.3317 12.5392 17.3297 12.5392V22.1104Z" fill="#052268"/>
<path d="M37.8447 63.9593C37.8022 70.2329 33.5282 75.7176 27.6438 76.974C20.8893 78.4144 14.3773 74.3787 12.4945 67.5826C10.4288 60.1244 15.0028 52.4633 22.504 50.9826C29.6989 49.5612 36.1683 54.46 37.5277 61.347C37.6979 62.1931 37.7426 63.0836 37.8447 63.9593ZM24.9526 53.5589C24.4039 53.5752 23.8564 53.6204 23.3124 53.6943C17.311 54.7921 13.5263 60.9303 15.2283 66.8084C16.7621 72.1725 21.6998 75.3072 26.9056 74.2496C31.12 73.3845 34.2664 69.8331 34.9025 65.222C35.7343 59.1895 30.9434 53.5949 24.9526 53.5589Z" fill="#052268"/>
</svg>
